HIERARCHY
ROOT hip
{
  OFFSET 0 0 0
  CHANNELS 6 Xposition Yposition Zposition Zrotation Yrotation Xrotation
  JOINT abdomen
  {
    OFFSET 0 20.6881 -0.73152
    CHANNELS 3 Zrotation Xrotation Yrotation
    JOINT chest
    {
      OFFSET 0 11.7043 -0.48768
      CHANNELS 3 Zrotation Xrotation Yrotation
      JOINT neck
      {
        OFFSET 0 22.1894 -2.19456
        CHANNELS 3 Zrotation Xrotation Yrotation
        JOINT head
        {
          OFFSET -0.24384 7.07133 1.2192
          CHANNELS 3 Zrotation Xrotation Yrotation
          JOINT leftEye
          {
            OFFSET 4.14528 8.04674 8.04672
            CHANNELS 3 Zrotation Xrotation Yrotation
            End Site
            {
              OFFSET 1 0 0
            }
          }
          JOINT rightEye
          {
            OFFSET -3.6576 8.04674 8.04672
            CHANNELS 3 Zrotation Xrotation Yrotation
            End Site
            {
              OFFSET 1 0 0
            }
          }
        }
      }
      JOINT rCollar
      {
        OFFSET -2.68224 19.2634 -4.8768
        CHANNELS 3 Zrotation Xrotation Yrotation
        JOINT rShldr
        {
          OFFSET -8.77824 -1.95073 1.46304
          CHANNELS 3 Zrotation Xrotation Yrotation
          JOINT rForeArm
          {
            OFFSET -28.1742 -1.7115 0.48768
            CHANNELS 3 Zrotation Xrotation Yrotation
            JOINT rHand
            {
              OFFSET -22.5879 0.773209 7.07136
              CHANNELS 3 Zrotation Xrotation Yrotation
              JOINT rThumb1
              {
                OFFSET -1.2192 -0.487915 3.41376
                CHANNELS 3 Zrotation Xrotation Yrotation
                JOINT rThumb2
                {
                  OFFSET -3.37035 -0.52449 3.41376
                  CHANNELS 3 Zrotation Xrotation Yrotation
                  End Site
                  {
                    OFFSET -1.78271 -1.18214 1.43049
                  }
                }
              }
              JOINT rIndex1
              {
                OFFSET -7.75947 0.938293 5.60832
                CHANNELS 3 Zrotation Xrotation Yrotation
                JOINT rIndex2
                {
                  OFFSET -2.54057 -0.884171 1.56538
                  CHANNELS 3 Zrotation Xrotation Yrotation
                  End Site
                  {
                    OFFSET -1.62519 -0.234802 1.16502
                  }
                }
              }
              JOINT rMid1
              {
                OFFSET -8.24714 1.18213 3.41376
                CHANNELS 3 Zrotation Xrotation Yrotation
                JOINT rMid2
                {
                  OFFSET -3.10165 -0.590103 1.0647
                  CHANNELS 3 Zrotation Xrotation Yrotation
                  End Site
                  {
                    OFFSET -2.48547 -0.328903 0.83742
                  }
                }
              }
              JOINT rRing1
              {
                OFFSET -8.82822 0.546677 1.51678
                CHANNELS 3 Zrotation Xrotation Yrotation
                JOINT rRing2
                {
                  OFFSET -2.60934 -0.819778 -0.0198488
                  CHANNELS 3 Zrotation Xrotation Yrotation
                  End Site
                  {
                    OFFSET -2.33842 -0.294052 0.168128
                  }
                }
              }
              JOINT rPinky1
              {
                OFFSET -8.27202 -0.0477905 -0.4584
                CHANNELS 3 Zrotation Xrotation Yrotation
                JOINT rPinky2
                {
                  OFFSET -1.82734 -0.647385 -0.700984
                  CHANNELS 3 Zrotation Xrotation Yrotation
                  End Site
                  {
                    OFFSET -1.69225 -0.51767 -0.607171
                  }
                }
              }
            }
          }
        }
      }
      JOINT lCollar
      {
        OFFSET 2.68224 19.2634 -4.8768
        CHANNELS 3 Zrotation Xrotation Yrotation
        JOINT lShldr
        {
          OFFSET 8.77824 -1.95073 1.46304
          CHANNELS 3 Zrotation Xrotation Yrotation
          JOINT lForeArm
          {
            OFFSET 28.1742 -1.7115 0.48768
            CHANNELS 3 Zrotation Xrotation Yrotation
            JOINT lHand
            {
              OFFSET 22.5879 0.773209 7.07136
              CHANNELS 3 Zrotation Xrotation Yrotation
              JOINT lThumb1
              {
                OFFSET 1.2192 -0.487915 3.41376
                CHANNELS 3 Zrotation Xrotation Yrotation
                JOINT lThumb2
                {
                  OFFSET 3.37035 -0.52449 3.41376
                  CHANNELS 3 Zrotation Xrotation Yrotation
                  End Site
                  {
                    OFFSET 1.78271 -1.18214 1.43049
                  }
                }
              }
              JOINT lIndex1
              {
                OFFSET 7.75947 0.938293 5.60832
                CHANNELS 3 Zrotation Xrotation Yrotation
                JOINT lIndex2
                {
                  OFFSET 2.54057 -0.884171 1.56538
                  CHANNELS 3 Zrotation Xrotation Yrotation
                  End Site
                  {
                    OFFSET 1.62519 -0.234802 1.16502
                  }
                }
              }
              JOINT lMid1
              {
                OFFSET 8.24714 1.18213 3.41376
                CHANNELS 3 Zrotation Xrotation Yrotation
                JOINT lMid2
                {
                  OFFSET 3.10165 -0.590103 1.0647
                  CHANNELS 3 Zrotation Xrotation Yrotation
                  End Site
                  {
                    OFFSET 2.48547 -0.328903 0.83742
                  }
                }
              }
              JOINT lRing1
              {
                OFFSET 8.82822 0.546677 1.51678
                CHANNELS 3 Zrotation Xrotation Yrotation
                JOINT lRing2
                {
                  OFFSET 2.60934 -0.819778 -0.0198488
                  CHANNELS 3 Zrotation Xrotation Yrotation
                  End Site
                  {
                    OFFSET 2.33842 -0.294052 0.168128
                  }
                }
              }
              JOINT lPinky1
              {
                OFFSET 8.27202 -0.0477905 -0.4584
                CHANNELS 3 Zrotation Xrotation Yrotation
                JOINT lPinky2
                {
                  OFFSET 1.82734 -0.647385 -0.700984
                  CHANNELS 3 Zrotation Xrotation Yrotation
                  End Site
                  {
                    OFFSET 1.69225 -0.51767 -0.607171
                  }
                }
              }
            }
          }
        }
      }
    }
  }
  JOINT rButtock
  {
    OFFSET -8.77824 4.35084 1.2192
    CHANNELS 3 Zrotation Xrotation Yrotation
    JOINT rThigh
    {
      OFFSET 0 -1.70687 -2.19456
      CHANNELS 3 Zrotation Xrotation Yrotation
      JOINT rShin
      {
        OFFSET 0 -36.8199 0.73152
        CHANNELS 3 Zrotation Xrotation Yrotation
        JOINT rFoot
        {
          OFFSET 0.73152 -45.1104 -5.12064
          CHANNELS 3 Zrotation Xrotation Yrotation
          End Site
          {
            OFFSET -1.1221 -3.69964 12.103
          }
        }
      }
    }
  }
  JOINT lButtock
  {
    OFFSET 8.77824 4.35084 1.2192
    CHANNELS 3 Zrotation Xrotation Yrotation
    JOINT lThigh
    {
      OFFSET 0 -1.70687 -2.19456
      CHANNELS 3 Zrotation Xrotation Yrotation
      JOINT lShin
      {
        OFFSET 0 -36.8199 0.73152
        CHANNELS 3 Zrotation Xrotation Yrotation
        JOINT lFoot
        {
          OFFSET -0.73152 -45.1104 -5.12064
          CHANNELS 3 Zrotation Xrotation Yrotation
          End Site
          {
            OFFSET 1.1221 -3.69964 12.103
          }
        }
      }
    }
  }
}
MOTION
Frames:	4
Frame Time:	0.03333
-0.7696099764871178 55.716198682785034 5.821000093783368 13.62940001704491 -54.44440093084461 -10.214400200913268 -16.86829962712705 22.492499370863577 3.5061200891883124 2.2930599230172417 -13.328099882188136 0.4178449866860223 -14.626500060387343 13.674800284457984 -13.163099587313553 17.840199687526724 -24.519800261813618 -21.588199400226813 -0.0 0.0 0.0 -0.0 0.0 0.0 -2.850220037860462e-13 -8.874880041805245e-14 6.228229868856691e-13 31.218598790310125 18.999499648184035 17.753799502073353 -29.55140084032879 -39.86729850608209 76.1143986765715 -5.256140059271578 -56.78159945726918 -11.328399785674115 -4.573869812436284e-09 1.8979999818567055e-09 2.2457699808992976e-09 -7.953310144102406e-09 2.638059992880343e-09 3.5736799866177815e-09 -4.573869812436284e-09 1.8979900426233257e-09 2.2457600416659183e-09 7.730910121524428 5.474879855648998 0.41731399283890674 -4.573880149238999e-09 1.8979999818567055e-09 2.2457699808992976e-09 2.90554006136521 0.9651829962377875 0.10290200252939893 -4.573869812436284e-09 1.8979999818567055e-09 2.2457699808992976e-09 10.278599710243157 0.7318009818271524 0.025912300303053633 -4.573880149238999e-09 1.8979999818567055e-09 2.2457699808992976e-09 2.221669932038622 -0.7334870246959406 -0.20891999872313852 -2.85130010445647e-13 -8.874179976172918e-14 6.225929965195276e-13 -111.07700322646454 47.78549924483744 48.61860132356599 26.885299677064133 -44.23609923508652 -92.02190242334203 4.065229983135447 -48.34510005863117 9.073389779305957 -4.189580088187125e-09 -1.9972299085790182e-09 -1.7399600087967917e-09 -7.1642797290022786e-09 -3.503889870381098e-09 -3.1408100725946134e-09 -4.189590027420504e-09 -1.9972299085790182e-09 -1.7399600087967917e-09 -7.730910121524428 5.474879855648998 -0.41731399283890674 -4.189580088187125e-09 -1.9972299085790182e-09 -1.7399600087967917e-09 -2.90554006136521 0.9651829962377875 -0.10290200252939893 -4.189590027420504e-09 -1.9972299085790182e-09 -1.7399600087967917e-09 -10.278599710243157 0.7318009818271524 -0.025912300303053633 -4.189580088187125e-09 -1.9972299085790182e-09 -1.7399800860482185e-09 -2.221669932038622 -0.7334870246959406 0.20891999872313852 -2.0321699793705798e-16 0.0 -3.882510030490358e-19 -89.34280170253955 -53.286099885353416 -80.22749761361816 -70.99200268587205 88.84830283681978 71.19080217185444 -1.7315700283094746 0.44743400650075227 -8.524439791749217 2.0321699793705798e-16 0.0 3.882510030490358e-19 24.904199893207352 -20.598600612140345 20.170499722889577 3.6825199697876467 80.84110131808458 -6.858919933869586 20.051700535108253 -22.87340023785497 34.055900352668445
-1.2454899679141818 55.80899715423584 6.049000083658029 13.720799900970727 -55.74480064692334 -11.403400385402733 -15.943900117310232 23.092299263017416 2.983150006800184 3.295350056355239 -13.112599729911418 0.416356992622738 -13.754799728885404 15.415999919001825 -13.767600357163655 16.347400372717907 -28.54819973051024 -23.06110066643609 -0.0 0.0 0.0 -0.0 0.0 0.0 1.777420050319034e-13 4.800659913930722e-13 1.8314499510680364e-13 29.329501654573413 15.83240069420436 18.52470075557789 -27.127600637870337 -25.031499251410754 52.94140072851038 0.4214209909229207 -18.135200680421452 -2.1740199710676746 6.146220155490641e-10 5.53451003714479e-10 1.4646999972052033e-09 1.0499999957232336e-09 7.903300195606746e-10 2.452259939775948e-09 6.146290227085967e-10 5.534469783249603e-10 1.46468995857949e-09 7.730910121524428 5.474879855648998 0.41731399283890674 6.14623009472402e-10 5.534480219444652e-10 1.4647100358309166e-09 2.90554006136521 0.9651829962377875 0.10290200252939893 6.1462400339574e-10 5.534480219444652e-10 1.4646999972052033e-09 10.278599710243157 0.7318009818271524 0.025912300303053633 6.146130205428556e-10 5.53451003714479e-10 1.4647100358309166e-09 2.221669932038622 -0.7334870246959406 -0.20891999872313852 1.7758500591089303e-13 4.800379887677793e-13 1.8295100291624455e-13 -110.67700002791192 39.96390128660817 50.202201173200955 26.977799221446325 -43.94299874232834 -91.50470000882115 5.582399839789693 -53.72309880354541 11.022399626894728 8.11297006311469e-11 1.4321399445486622e-11 -7.716739791148814e-10 1.6501799821466925e-10 3.9206200596731793e-11 -1.313469989287638e-09 8.11312971205085e-11 1.4331000123729204e-11 -7.716700034215296e-10 -7.730910121524428 5.474879855648998 -0.41731399283890674 8.113550265863223e-11 1.4331500191408614e-11 -7.716750227343863e-10 -2.90554006136521 0.9651829962377875 -0.10290200252939893 8.113040258950433e-11 1.4334099922139457e-11 -7.716830238172568e-10 -10.278599710243157 0.7318009818271524 -0.025912300303053633 8.112850171112049e-11 1.4337499450556314e-11 -7.716909752039605e-10 -2.221669932038622 -0.7334870246959406 0.20891999872313852 -2.0321699793705798e-16 0.0 -3.882510030490358e-19 -89.38169962986277 -52.443401390841 -81.70540028584718 -69.20810070863729 88.83919819465616 69.42299895049341 -1.2984200284364817 -0.44460001160372586 -5.668180185575883 2.0321699793705798e-16 0.0 3.882510030490358e-19 25.558400534553048 -19.05660002964534 21.53089923573228 3.5654200050057745 80.60020054605823 -6.741859883005676 19.95539999045295 -22.7729008344074 33.93800104231027
-1.6843299566971837 55.90370297431946 5.991000084395637 13.03159966277059 -58.03369949063216 -10.43240020242621 -14.085899979090943 23.064100827029016 3.0327499867791703 3.4667500250387127 -12.751700218130761 0.5551320024466901 -13.163200332603811 15.600399658666536 -14.48270067269648 15.942100362463934 -28.82520146739469 -24.626600514770523 -0.0 0.0 0.0 -0.0 0.0 0.0 2.818529995808734e-13 4.81734016057408e-13 -1.2027299849875339e-13 28.82910150541077 8.426260091298515 19.34010069152506 -19.171799707734067 -12.118000389578855 39.19550158988715 -0.3558100069927931 4.24888010953875 0.43796699078514434 2.5667400298418754e-09 -5.3941598619576743e-11 -3.7984199185605027e-10 4.428479899267889e-09 -4.943810091518769e-11 -6.331210161074601e-10 2.5667499690752552e-09 -5.3946599296370845e-11 -3.798539934803561e-10 7.730910121524428 5.474879855648998 0.41731399283890674 2.5667400298418754e-09 -5.3947102470060685e-11 -3.798360034679391e-10 2.90554006136521 0.9651829962377875 0.10290200252939893 2.5667400298418754e-09 -5.3947003077726886e-11 -3.798440045508096e-10 10.278599710243157 0.7318009818271524 0.025912300303053633 2.566730090608496e-09 -5.394400267165043e-11 -3.798350095446011e-10 2.221669932038622 -0.7334870246959406 -0.20891999872313852 2.8171400561408093e-13 4.817060134321149e-13 -1.2051200357485716e-13 -110.27599962174047 36.40469995539828 52.06379996733919 27.502099910062135 -42.73890127845221 -88.72899992258718 7.2658203428234565 -58.08060239966264 13.04220011636245 1.7793499858187118e-09 7.793740026063707e-10 -3.247380123167741e-10 3.07823007503614e-09 1.3812000006217374e-09 -4.829050087792788e-10 1.7793499858187118e-09 7.793859793825931e-10 -3.247300112339036e-10 -7.730910121524428 5.474879855648998 -0.41731399283890674 1.7793499858187118e-09 7.793859793825931e-10 -3.247380123167741e-10 -2.90554006136521 0.9651829962377875 -0.10290200252939893 1.7793499858187118e-09 7.793870230020981e-10 -3.247449946282233e-10 -10.278599710243157 0.7318009818271524 -0.025912300303053633 1.7793499858187118e-09 7.793900047721119e-10 -3.247520017877559e-10 -2.221669932038622 -0.7334870246959406 0.20891999872313852 -2.0321699793705798e-16 0.0 -3.882510030490358e-19 -88.32239876129631 -52.06459909947209 -82.70990254670261 -52.65199878318777 88.64679859592607 52.88199857329878 -0.9795080373614199 -1.5144299903017182 -3.7507001987431834 2.0321699793705798e-16 0.0 3.882510030490358e-19 26.588900202936845 -17.529600250114978 22.905000108050032 3.316270072009342 80.04509741183297 -6.4860897891562095 20.09669952890759 -23.063800298705537 33.88620088764489
-1.961799962373334 56.18709921836853 5.9500000836123945 11.00399995104436 -60.06049665513091 -8.375100266867827 -11.29139979716651 22.407600119480318 3.6539501422631298 2.803479959692295 -12.24529974778226 0.8333679758585048 -12.910099988946172 14.240100037340444 -15.28960043822157 16.94759983093819 -25.442099488460656 -26.10850055521129 -0.0 0.0 0.0 -0.0 0.0 0.0 2.731229930865439e-14 -8.374510254349614e-14 -2.874300111698889e-13 30.003600344518652 -3.094139940482657 20.7647005674713 -13.077899807606814 -6.504259799895736 23.892500320514014 -0.23919800053018025 9.890240276678108 1.3506199626117157 1.2824799565717968e-09 7.581660267182469e-11 -3.2878699757554448e-09 2.1821300634932264e-09 1.1875500403864893e-10 -5.6824501588137165e-09 1.2824899951975103e-09 7.581229774136716e-11 -3.2878799149888245e-09 7.730910121524428 5.474879855648998 0.41731399283890674 1.2824799565717968e-09 7.581260213038941e-11 -3.2878600365220654e-09 2.90554006136521 0.9651829962377875 0.10290200252939893 1.2824799565717968e-09 7.581199956436577e-11 -3.2878699757554448e-09 10.278599710243157 0.7318009818271524 0.025912300303053633 1.2824799565717968e-09 7.581490057810843e-11 -3.2878600365220654e-09 2.221669932038622 -0.7334870246959406 -0.20891999872313852 2.725700079676993e-14 -8.373719798960602e-14 -2.8779601082092435e-13 -110.16199693430379 36.79740168172816 53.801499129933404 28.077299168372882 -40.30659919802439 -84.25319745004533 8.91633982462527 -61.43639728229496 14.955199499099622 9.050750398923347e-10 2.9793100536106026e-10 -3.991499963153766e-10 1.575350003688312e-09 5.221030095084726e-10 -6.491030052048128e-10 9.05069970883311e-10 2.9793699374917145e-10 -3.991410013091681e-10 -7.730910121524428 5.474879855648998 -0.41731399283890674 9.050770277390105e-10 2.9793500590249555e-10 -3.991499963153766e-10 -2.90554006136521 0.9651829962377875 -0.10290200252939893 9.050669891132972e-10 2.9793199928439824e-10 -3.991509902387146e-10 -10.278599710243157 0.7318009818271524 -0.025912300303053633 9.05071958729987e-10 2.979300114377223e-10 -3.991579973982472e-10 -2.221669932038622 -0.7334870246959406 0.20891999872313852 -2.0321699793705798e-16 0.0 -3.882510030490358e-19 -86.2183999686089 -52.166700182280024 -83.30699768394513 -33.50519927536324 88.07910059287128 33.74929999101574 -0.8098910148555842 -2.7570299775811535 -2.7715300423022673 2.0321699793705798e-16 0.0 3.882510030490358e-19 27.995900388939255 -16.020200160528447 24.29559930230795 2.9788600076711815 79.17540259462606 -6.135769813513078 20.475800641052686 -23.747099253462782 33.904498964431355
